<svg xmlns="http://www.w3.org/2000/svg" width="382.588" height="117.052" viewBox="0 0 382.588 117.052"><defs><style>.a{fill:#004743;}.b{fill:#0094c7;}.c{fill:#009480;}.d{fill:#fbbd51;}</style></defs><path class="a" d="M311.095,201.634v-3.579c0-3.655,1.089-5.366,3.5-5.366,2.334,0,3.422,1.634,3.422,5.366v3.579Zm12.131,20.218c1.4-1.944,1.789-3.655,1.789-7.932v-1.789h-7.076a12.487,12.487,0,0,0-.079,1.4c0,3.187-.077,3.577-.388,4.355a3.038,3.038,0,0,1-2.879,1.789c-2.41,0-3.5-1.711-3.5-5.366v-6.842h13.92v-8.01c0-4.511-.623-7-2.177-9.177a10.214,10.214,0,0,0-8.243-3.966,10.589,10.589,0,0,0-8.32,3.966c-1.555,2.179-2.177,4.666-2.177,9.177v13.452c0,4.432.622,7,2.255,9.176a10.633,10.633,0,0,0,8.4,3.966,10.317,10.317,0,0,0,8.476-4.2m7.621-41.215h7v-7h-7Zm0,44.87h7V186.859h-7Zm26.127,0h7v-30.1c0-4.587-.233-5.832-1.244-7.31a4.566,4.566,0,0,0-3.889-1.789c-2.8,0-4.744,1.167-8.01,4.744v-4.2h-7v38.649h7v-29.55c1.634-2.256,2.955-3.267,4.434-3.267a1.5,1.5,0,0,1,1.476,1.167c.233.544.233.932.233,3.189Zm19.752-23.873v-3.579c0-3.655,1.089-5.366,3.5-5.366,2.334,0,3.422,1.634,3.422,5.366v3.579Zm0,12.675v-6.842h13.921v-8.01c0-4.511-.622-7-2.177-9.177a10.218,10.218,0,0,0-8.245-3.966,10.6,10.6,0,0,0-8.32,3.966c-1.555,2.179-2.177,4.666-2.177,9.177v13.452c0,4.432.622,7,2.256,9.176a10.632,10.632,0,0,0,8.4,3.966,10.317,10.317,0,0,0,8.476-4.2c1.4-1.944,1.79-3.655,1.79-7.932v-1.789h-7.077a12.686,12.686,0,0,0-.077,1.4c0,3.187-.079,3.577-.389,4.355a3.035,3.035,0,0,1-2.879,1.789c-2.41,0-3.5-1.711-3.5-5.366" transform="translate(-178.499 -149.631)"/><path class="a" d="M289.008,185.182c0-3.11,1.711-5.132,4.355-5.132,2.879,0,4.044,1.634,4.51,6.3l7.543-1.089c-.932-8.243-4.9-12.442-11.742-12.442-7.31,0-12.208,5.132-12.208,12.831,0,5.755,2.332,9.877,8.866,15.942,4.352,3.966,4.821,4.51,6.064,6.144a9.331,9.331,0,0,1,2.022,5.6c0,3.5-1.866,5.677-4.744,5.677-3.5,0-5.289-2.644-5.521-8.087l-7.388,1.321c.234,8.477,5.29,14,12.91,14,7.311,0,12.286-5.366,12.286-13.3,0-6.3-1.942-9.565-10.031-16.952-5.521-5.134-6.921-7.233-6.921-10.81" transform="translate(-183.869 -149.82)"/><path class="a" d="M530.883,200.812h-6.921v-3.577c0-3.655,1.089-5.366,3.5-5.366,2.332,0,3.421,1.632,3.421,5.366Zm7,5.832v-8.01c0-4.511-.622-7-2.177-9.176a10.209,10.209,0,0,0-8.242-3.967,10.594,10.594,0,0,0-8.321,3.967c-1.556,2.177-2.177,4.665-2.177,9.176v13.453c0,4.431.621,7,2.255,9.175a10.632,10.632,0,0,0,8.4,3.967,10.32,10.32,0,0,0,8.477-4.2c1.4-1.945,1.788-3.654,1.788-7.931v-1.789H530.8a12.875,12.875,0,0,0-.076,1.4c0,3.189-.078,3.579-.39,4.355a3.034,3.034,0,0,1-2.876,1.789c-2.411,0-3.5-1.711-3.5-5.365v-6.844Zm-39.814-20.608h-7v38.649h7v-29.55c1.632-2.256,2.955-3.266,4.432-3.266a1.5,1.5,0,0,1,1.477,1.166c.234.545.234.934.234,3.189v28.462h7v-30.1c0-4.587-.234-5.831-1.244-7.309a4.565,4.565,0,0,0-3.89-1.79c-2.8,0-4.742,1.167-8.008,4.744Zm-26.518,0v38.649h7V201.279c0-3.422.388-5.055,1.632-6.532a5.483,5.483,0,0,1,4.355-1.944,7.315,7.315,0,0,1,2.41.389v-7.7c-3.654.156-5.986,1.867-8.4,6.066v-5.521Zm-13.373,29.24c-1.4,2.41-2.956,3.576-4.589,3.576-1.477,0-2.41-1.476-2.41-4.044,0-3.966,1.944-6.61,7-9.8Zm7.7,9.408c-.622-3.889-.7-5.055-.7-14V197.935c0-5.21-.389-7-1.944-9.1-1.477-2.177-4.121-3.345-7.308-3.345-6.534,0-10.5,4.2-11.043,11.665h7.155c.155-3.809,1.089-5.287,3.266-5.287,2.255,0,2.878,1.089,2.878,5.287v2.49c-11.353,6.376-14.232,9.642-14.232,16.407,0,5.6,2.489,9.177,6.3,9.177,2.644,0,5.211-1.555,8.088-4.9.234,2.1.234,2.411.544,4.355Zm-27.683,0V172.817h-10.5l-5.911,31.573-6.455-31.573H404.907v51.868h7.233V188.836l7.853,35.849h3.5l7.467-35.849v35.849Z" transform="translate(-155.293 -149.82)"/><path class="b" d="M511.843,243.894l1.138-3.97h-3.523l-1.138,3.97Zm2.013-7.018,3.392-11.828h-3.522l-3.393,11.828Zm-19.309.1a5.754,5.754,0,0,1-1.064,1.958,4.865,4.865,0,0,1-1.735,1.3,5.683,5.683,0,0,1-2.379.472h-3.154v-12.3h3.154a5.886,5.886,0,0,1,2.353.447,4.812,4.812,0,0,1,1.748,1.261,5.548,5.548,0,0,1,1.076,1.945,7.931,7.931,0,0,1,.369,2.471,7.83,7.83,0,0,1-.369,2.444m-5.178,6.914a10.263,10.263,0,0,0,3.8-.67,8.351,8.351,0,0,0,2.9-1.892,8.23,8.23,0,0,0,1.853-2.944,10.9,10.9,0,0,0,.645-3.852,11.1,11.1,0,0,0-.579-3.614,8.053,8.053,0,0,0-4.612-4.954,10.128,10.128,0,0,0-4.009-.737h-6.781v18.663Zm-15.718,0h2.944V225.258h-3.628V237.48l-9.725-12.249h-2.812v18.663h3.627v-11.96Zm-28.756-7.2,2.682-7.333,2.575,7.333Zm-6.046,7.2h3.732l1.71-4.654h6.518l1.735,4.654h3.732l-7.1-18.663h-3.208ZM425,228.413h4.389a2.126,2.126,0,0,1,.932.223,2.558,2.558,0,0,1,.816.631,3.18,3.18,0,0,1,.566.958,3.408,3.408,0,0,1,.209,1.211,3.755,3.755,0,0,1-.183,1.183,3.245,3.245,0,0,1-.5.958,2.382,2.382,0,0,1-.749.645,1.925,1.925,0,0,1-.934.236H425Zm0,15.482v-6.257h3.575l3.81,6.257h4.076l-4.258-7.018a5.21,5.21,0,0,0,2.458-2.143,6.207,6.207,0,0,0,.905-3.3,6.014,6.014,0,0,0-.447-2.248,6.724,6.724,0,0,0-1.236-2A6.112,6.112,0,0,0,432,225.771a5.283,5.283,0,0,0-2.379-.54h-8.253v18.663Zm-11.828,0h3V234.3h-6.756v2.655h3.759v1.314a6.362,6.362,0,0,1-4.889,2.55,5.017,5.017,0,0,1-2.2-.486,5.423,5.423,0,0,1-1.747-1.327,6.242,6.242,0,0,1-1.158-1.986,7.054,7.054,0,0,1-.419-2.457,7.446,7.446,0,0,1,.38-2.391,6.424,6.424,0,0,1,1.079-2,5.062,5.062,0,0,1,1.68-1.367,4.75,4.75,0,0,1,2.169-.5,5.45,5.45,0,0,1,2.774.737,5.016,5.016,0,0,1,1.984,2.128l2.706-2a7.145,7.145,0,0,0-2.825-2.97,8.754,8.754,0,0,0-4.509-1.1,8.634,8.634,0,0,0-3.6.748,9.192,9.192,0,0,0-2.877,2.025,9.469,9.469,0,0,0-2.615,6.584,10.091,10.091,0,0,0,.7,3.773,9.671,9.671,0,0,0,1.892,3.035,8.752,8.752,0,0,0,2.812,2.025,8.26,8.26,0,0,0,3.457.734,7.136,7.136,0,0,0,5.2-2.233Zm-30.307,0h2.944V225.258h-3.627V237.48l-9.726-12.249h-2.813v18.663h3.628v-11.96Zm-27.495-3.181V235.85h7.86v-2.944h-7.86v-4.494h9.1v-3.181H351.74v18.663H364.7v-3.181Z" transform="translate(-167.532 -137.797)"/><path class="c" d="M343.178,240.713v-4.862h7.86v-2.944h-7.86v-4.5h9.1v-3.179H339.552v18.662h12.959v-3.181Zm-19.582-12.3h4.391a2.119,2.119,0,0,1,.932.224,2.567,2.567,0,0,1,.814.631,3.171,3.171,0,0,1,.566.96,3.4,3.4,0,0,1,.21,1.209,3.743,3.743,0,0,1-.183,1.183,3.209,3.209,0,0,1-.5.96,2.382,2.382,0,0,1-.749.643,1.917,1.917,0,0,1-.932.236H323.6Zm0,15.483v-6.255h3.575l3.812,6.255h4.074l-4.259-7.019a5.207,5.207,0,0,0,2.458-2.141,6.216,6.216,0,0,0,.907-3.3,6.028,6.028,0,0,0-.447-2.246,6.746,6.746,0,0,0-1.235-2,6.2,6.2,0,0,0-1.88-1.42,5.313,5.313,0,0,0-2.379-.538H319.97v18.662Zm-25.391-18.662,7.333,18.662h3.05l7.28-18.662h-3.811l-4.993,14.114-5.047-14.114Zm-4.1,0h-3.628V243.9h3.628Zm-24.552.94,6.494,17.722H279.1l7.283-18.662h-3.812l-4.995,14.114-5.027-14.3Z" transform="translate(-186.45 -137.797)"/><path class="a" d="M217.921,236.964s.011.059.032.149c-.009-.166-.032-.149-.032-.149m65.271-58.5c-6.049-11.127-16.36-17.878-26.144-21.432a7.729,7.729,0,0,0-3.584,1.116c-6.622,4.01-6.979,13.642-7.962,23.7a26.944,26.944,0,0,1-7.657,16.134s.095.672-6.669,3.676c-4.217,1.871-10.625,1.393-15.166.312-1.041,4.441-3.7,11.992-6.36,15.067-3.625,4.194-10.8,21.715-6.11,38.35,1.887-2.784,3.063-5.675,5.719-15.768,3.33-12.656,4.662-18.652,11.325-17.987s8.993,23.984,8.993,23.984,0-.333,3-11.657,5.33-22.318,11.326-24.317,10.325,7.328,11.325,31.976c.055,1.38.069,2.709.063,4.012a17.361,17.361,0,0,1,4.491-2.7c4.318-1.6,12.97-7.755,13.842-8.577.8-.75-3.55-7.4-6.1-11.277-.547.373-1.469.946-1.795.327a2.9,2.9,0,0,1-.194-1.842c.653-5.082,2.145-11.933,2.078-19.693l-.006,0c-6.77,2.981-13.434,2.483-17.3-4.915-3.048-5.834,2.224-14.4,9.5-16.455a12.963,12.963,0,0,1,13.933,5c.129-.053.265-.106.4-.156,2.95-3.229,5.508-6.045,7.062-6.4.667-.15,1.335-.316,1.993-.477m-23.684,10.758c-.9,1-3.665,7.48,1.787,6.487a12.889,12.889,0,0,0,5.366-2.925l.023-.1c-1.922-8.219-6.28-4.457-7.177-3.461" transform="translate(-202 -153.452)"/><path class="b" d="M217.64,224.564s.012.059.033.149c-.009-.167-.033-.149-.033-.149m-10.372,26.269-.606,1.346c12.922,9.523,32.565,8.279,39.013-8.954,2.523-12.672-2.053-32.318-2.053-32.318s-.667,0-1.332,5.33-2.666,19.986-8.661,30.979c-7.543,13.83-15.4-20.067-15.956-22.5a81.8,81.8,0,0,1-1.033,9.177c-1.02,7.391-6.734,14.162-9.372,16.943" transform="translate(-200.927 -141.052)"/><path class="d" d="M242.557,154.5c-4.566-.79-10.963-.758-19.5,4.2-9.835,5.711-10.231,20.516-9.413,38.934,3.974-1.343,9.575-3,13.621-5.271,7.294-4.106,5.821-9.717,7.428-20.208,1.566-10.247,4.676-14.178,7.862-17.652" transform="translate(-199.383 -154.123)"/><path class="c" d="M254.01,218.494c1.444,1.219,6.285,7.5,7.642,10.7,12.871-11.326,18.411-28.778,13.565-49.6-.01-.044-.05-.095-.065-.139a52.921,52.921,0,0,1-9.768,11.4c.293,9.6.353,14.492-2.287,18.477-2.158,3.258-5.38,8.069-9.087,9.164" transform="translate(-190.028 -148.291)"/><path class="a" d="M388.633,201.517a1.274,1.274,0,0,1,.471-.167.5.5,0,0,1,.535.763,6.373,6.373,0,0,1-.971,1.683,6.076,6.076,0,0,1-2.35,1.878,1.739,1.739,0,0,1-.069-.493,4.917,4.917,0,0,1,2.383-3.663m-9.926,6.777c.1.385.225.753.331,1.062a2.144,2.144,0,0,0,1.653,1.588,9.6,9.6,0,0,0,2.15.02,3.375,3.375,0,0,1,.337-.021.956.956,0,0,1,.919.524,3.156,3.156,0,0,0,3.508,1.5c2.176-.242,4.2-1.308,6.561-3.452.23-.207.45-.423.693-.658.134-.13.274-.267.424-.411l.109-.1.081.127c.114.182.223.352.327.513.213.33.413.641.592.962a4.1,4.1,0,0,0,5.394,1.88,22.642,22.642,0,0,0,2.6-1.594c.267-.18.531-.359.8-.535a.466.466,0,0,0,.226-.315.547.547,0,0,0-.2-.421c-.1-.1-.194-.2-.293-.3a5.212,5.212,0,0,0-.845-.761.867.867,0,0,0-.787-.074,5.792,5.792,0,0,1-2.209.811c-.327.069-.664.14-.987.24a2.125,2.125,0,0,1-1.752-.082,3.1,3.1,0,0,1-1.2-2.16,5.151,5.151,0,0,1,.456-2.978c.1-.256.192-.514.274-.774a.92.92,0,0,1,.755-.5,25.326,25.326,0,0,0,4.248-.667c.229-.049.456-.1.685-.145a1.228,1.228,0,0,0,.818-.517,1.425,1.425,0,0,0,.121-1.112,1.947,1.947,0,0,0-2.347-1.715,3.333,3.333,0,0,0-.733.288l-.18.086a6.205,6.205,0,0,1-2.677.534h-.112l-.014-.111c-.017-.159-.039-.311-.059-.459-.044-.319-.085-.62-.1-.925-.02-.395-.022-.8-.026-1.187,0-.285,0-.572-.012-.859a2.137,2.137,0,0,0-1.416-2.164.678.678,0,0,0-.96.374,10.861,10.861,0,0,0-.684,1.616,20.018,20.018,0,0,0-.7,7.459,3.75,3.75,0,0,1-1.224,3.168c-.864.824-1.8,1.58-2.7,2.309l-.268.218a6.2,6.2,0,0,1-3.25,1.142l-.16.022.02-.16c.01-.073.014-.133.016-.181a.334.334,0,0,1,.069-.234,3.2,3.2,0,0,1,.258-.226c.071-.062.145-.122.213-.187.368-.352.742-.693,1.117-1.033a26.625,26.625,0,0,0,2.507-2.506,4.343,4.343,0,0,0,.88-4.662,7.342,7.342,0,0,0-1.292-1.939,2.583,2.583,0,0,0-3.062-.567,5.009,5.009,0,0,0-2.984,3.149c-.068.2-.138.41-.207.615a16.6,16.6,0,0,0-1.126,5.014,1.189,1.189,0,0,1-.893,1.247,1.839,1.839,0,0,1-1.743-.219,3.5,3.5,0,0,0-1.143-.554c-.408-.112-.68-.107-.8.014-.139.139-.138.469,0,.983" transform="translate(-161.348 -145.091)"/></svg>