<?xml version="1.0" standalone="no"?>
<!DOCTYPE svg PUBLIC "-//W3C//DTD SVG 20010904//EN"
 "http://www.w3.org/TR/2001/REC-SVG-20010904/DTD/svg10.dtd">
<svg version="1.0" xmlns="http://www.w3.org/2000/svg"
 width="500.000000pt" height="500.000000pt" viewBox="0 0 500.000000 500.000000"
 preserveAspectRatio="xMidYMid meet">
<metadata>
Created by potrace 1.14, written by Peter Selinger 2001-2017
</metadata>
<g transform="translate(0.000000,500.000000) scale(0.100000,-0.100000)"
fill="#000000" stroke="none">
<path d="M1720 4114 c-65 -28 -78 -55 -226 -492 -38 -109 -48 -218 -25 -246 7
-9 8 -16 2 -20 -5 -4 -8 -20 -6 -36 3 -25 0 -30 -16 -30 -14 0 -19 -5 -17 -17
2 -10 11 -17 20 -15 9 1 19 -1 21 -5 3 -5 -284 -8 -636 -7 -706 1 -714 0 -773
-57 -66 -64 -65 -52 -62 -681 l3 -566 31 -44 c18 -23 51 -53 75 -65 l42 -23
2346 0 2346 0 42 23 c51 28 87 71 102 122 9 29 11 192 9 595 -3 609 0 581 -65
642 -57 55 -54 55 -751 54 -473 -1 -638 2 -627 10 16 12 20 34 6 34 -8 0 -12
28 -9 75 5 126 -1 174 -32 260 -17 50 -33 95 -34 100 -2 6 -7 21 -13 35 -5 14
-29 81 -53 150 -23 69 -53 139 -66 156 -49 67 -12 64 -846 63 -650 0 -758 -2
-788 -15z m-186 -863 c3 -4 -4 -7 -14 -6 -27 2 -33 10 -10 12 11 1 22 -2 24
-6z m41 -1 c3 -6 -1 -7 -9 -4 -18 7 -21 14 -7 14 6 0 13 -4 16 -10z m40 0 c3
-6 -1 -7 -9 -4 -18 7 -21 14 -7 14 6 0 13 -4 16 -10z m59 1 c3 -4 -4 -7 -14
-6 -27 2 -33 10 -10 12 11 1 22 -2 24 -6z m60 0 c3 -4 -4 -7 -14 -6 -27 2 -33
10 -10 12 11 1 22 -2 24 -6z m60 0 c3 -4 -4 -7 -14 -6 -27 2 -33 10 -10 12 11
1 22 -2 24 -6z m60 0 c3 -4 -4 -7 -14 -6 -27 2 -33 10 -10 12 11 1 22 -2 24
-6z m41 -1 c3 -6 -1 -7 -9 -4 -18 7 -21 14 -7 14 6 0 13 -4 16 -10z m79 1 c3
-4 -4 -7 -14 -6 -27 2 -33 10 -10 12 11 1 22 -2 24 -6z m56 5 c0 -3 -4 -8 -10
-11 -5 -3 -10 -1 -10 4 0 6 5 11 10 11 6 0 10 -2 10 -4z m44 -4 c2 -4 -4 -8
-14 -8 -10 0 -16 4 -14 8 3 4 9 8 14 8 5 0 11 -4 14 -8z m60 -1 c3 -4 -4 -7
-14 -6 -27 2 -33 10 -10 12 11 1 22 -2 24 -6z m85 0 c10 -7 7 -9 -12 -8 -14 1
-23 5 -20 10 6 9 15 9 32 -2z m66 -9 c-3 -3 -11 0 -18 7 -9 10 -8 11 6 5 10
-3 15 -9 12 -12z m40 0 c-3 -3 -11 0 -18 7 -9 10 -8 11 6 5 10 -3 15 -9 12
-12z m45 4 c-7 -7 -13 -7 -20 0 -6 6 -3 10 10 10 13 0 16 -4 10 -10z m44 6 c3
-5 -1 -9 -9 -9 -8 0 -12 4 -9 9 3 4 7 8 9 8 2 0 6 -4 9 -8z m60 -1 c3 -4 -4
-7 -14 -6 -27 2 -33 10 -10 12 11 1 22 -2 24 -6z m60 0 c3 -4 -4 -7 -14 -6
-27 2 -33 10 -10 12 11 1 22 -2 24 -6z m60 0 c3 -4 -4 -7 -14 -6 -27 2 -33 10
-10 12 11 1 22 -2 24 -6z m60 0 c3 -4 -4 -7 -14 -6 -27 2 -33 10 -10 12 11 1
22 -2 24 -6z m41 -1 c3 -6 -1 -7 -9 -4 -18 7 -21 14 -7 14 6 0 13 -4 16 -10z
m70 -8 c-3 -3 -11 0 -18 7 -9 10 -8 11 6 5 10 -3 15 -9 12 -12z m40 0 c-3 -3
-11 0 -18 7 -9 10 -8 11 6 5 10 -3 15 -9 12 -12z m45 4 c-7 -7 -13 -7 -20 0
-6 6 -3 10 10 10 13 0 16 -4 10 -10z m84 5 c3 -4 -4 -7 -14 -6 -27 2 -33 10
-10 12 11 1 22 -2 24 -6z m56 5 c0 -3 -4 -8 -10 -11 -5 -3 -10 -1 -10 4 0 6 5
11 10 11 6 0 10 -2 10 -4z m44 -4 c2 -4 -4 -8 -14 -8 -10 0 -16 4 -14 8 3 4 9
8 14 8 5 0 11 -4 14 -8z m60 -1 c3 -4 -4 -7 -14 -6 -27 2 -33 10 -10 12 11 1
22 -2 24 -6z m85 0 c10 -7 7 -9 -12 -8 -14 1 -23 5 -20 10 6 9 15 9 32 -2z
m95 0 c3 -4 -4 -7 -14 -6 -27 2 -33 10 -10 12 11 1 22 -2 24 -6z m60 0 c3 -4
-4 -7 -14 -6 -27 2 -33 10 -10 12 11 1 22 -2 24 -6z m60 0 c3 -4 -4 -7 -14 -6
-27 2 -33 10 -10 12 11 1 22 -2 24 -6z m60 0 c3 -4 -4 -7 -14 -6 -27 2 -33 10
-10 12 11 1 22 -2 24 -6z m41 -1 c3 -6 -1 -7 -9 -4 -18 7 -21 14 -7 14 6 0 13
-4 16 -10z"/>
</g>
</svg>
